# xmcd
#
# Track frame offsets: 
#        150
#        11232
#        22807
#        37887
#        51285
#        62537
#        79375
#        94987
#        106875
#        122510
#        136535
#        149900
#
# Disc length: 2166 seconds
#
# Revision: 0
# Processed by: cddbd v1.5.1PL2 Copyright (c) Steve Scherf et al.
# Submitted via: ExactAudioCopy v0.95a3
#
DISCID=9c08740c
DTITLE=Appaloosa [Country Current] - Dreamin' of the Sea
DYEAR=1998
DGENRE=Bluegrass
TTITLE0=Maggie Valley
TTITLE1=Rose Gold Wedding Band
TTITLE2=Maynard's Chandelier
TTITLE3=Far From Me now
TTITLE4=Ways of God
TTITLE5=Douglas the Dog
TTITLE6=Every Time it Snows
TTITLE7=Walking With the Angels
TTITLE8=RodyBelle
TTITLE9=(I'm Gonna Be) 500 Miles
TTITLE10=Dreamin' of the Sea
TTITLE11=Heart of Caroline
EXTD=Exact same band as Country Current, the name they use as part of 
EXTD=their official duties with the U.S. Navy.\n\nWayne Taylor, vocals
EXTD=, guitar\nPat White, fiddle, mandolin, vocals\nKeith Arneson, ban
EXTD=jo, vocals\nJoe Wheatley, bass, vocals
EXTT0=
EXTT1=
EXTT2=
EXTT3=
EXTT4=
EXTT5=
EXTT6=
EXTT7=
EXTT8=
EXTT9=
EXTT10=
EXTT11=
PLAYORDER=
